<?xml version="1.0" standalone="no"?>
<!DOCTYPE svg PUBLIC "-//W3C//DTD SVG 20010904//EN"
 "http://www.w3.org/TR/2001/REC-SVG-20010904/DTD/svg10.dtd">
<svg version="1.0" xmlns="http://www.w3.org/2000/svg"
 width="904.000000pt" height="904.000000pt" viewBox="0 0 904.000000 904.000000"
 preserveAspectRatio="xMidYMid meet">
<metadata>
Created by potrace 1.11, written by Peter Selinger 2001-2013
</metadata>
<g transform="translate(0.000000,904.000000) scale(0.100000,-0.100000)"
fill="#000000" stroke="none">
<path d="M2423 7880 c-35 -14 -114 -100 -134 -146 -18 -39 -24 -73 -20 -120 0
-12 14 -36 30 -53 22 -24 34 -29 56 -25 58 10 119 84 154 185 41 122 2 194
-86 159z"/>
<path d="M6536 7871 c-26 -28 -29 -73 -10 -138 16 -54 53 -125 78 -148 69 -62
97 -67 137 -24 27 29 30 38 28 91 -2 45 -9 70 -29 102 -38 59 -84 105 -125
122 -45 19 -58 18 -79 -5z"/>
<path d="M2063 7692 c-55 -8 -137 -142 -175 -284 -30 -111 -33 -312 -5 -374
l18 -40 -65 -110 c-36 -60 -66 -104 -67 -99 -4 56 -44 177 -85 261 -97 199
-240 291 -298 193 -26 -44 -31 -74 -31 -189 1 -115 18 -194 62 -288 31 -66
119 -158 160 -168 15 -4 33 -11 40 -16 7 -5 17 -7 23 -3 20 12 9 -18 -50 -140
-60 -123 -83 -176 -80 -184 1 -2 -2 -7 -7 -10 -5 -3 -17 -28 -28 -56 -10 -27
-25 -66 -33 -85 l-14 -34 -47 91 c-145 281 -421 487 -520 389 -25 -25 -26 -31
-25 -124 1 -82 6 -109 32 -180 90 -241 240 -392 407 -409 59 -6 70 -14 56 -39
-23 -39 -109 -352 -152 -549 -11 -49 -22 -97 -24 -105 -2 -8 -4 -24 -5 -35
l-1 -20 -15 20 c-101 136 -255 271 -394 343 -40 21 -160 73 -178 77 -10 2 -40
10 -67 18 -63 18 -148 14 -181 -8 -45 -30 -57 -79 -37 -155 3 -14 7 -27 7 -30
4 -22 74 -146 110 -194 39 -51 129 -148 176 -190 38 -33 165 -110 200 -121 3
-1 12 -4 20 -8 84 -34 215 -37 294 -7 22 8 24 7 21 -12 -3 -11 -7 -55 -11 -96
-3 -42 -8 -85 -10 -96 -6 -31 -18 -268 -18 -373 -1 -83 -2 -90 -18 -82 -9 5
-23 17 -30 27 -18 24 -102 91 -168 133 -263 171 -591 262 -728 203 -23 -10
-42 -24 -42 -31 0 -6 -5 -13 -11 -15 -14 -5 -19 -99 -6 -115 5 -7 7 -13 3 -13
-12 0 52 -115 99 -178 46 -61 132 -152 191 -202 108 -91 279 -181 390 -204 57
-12 192 -14 234 -3 62 16 76 21 88 30 9 7 12 0 13 -29 0 -22 2 -47 4 -56 2
-10 6 -52 9 -95 3 -43 8 -91 11 -108 4 -16 8 -46 10 -65 2 -19 6 -46 8 -60 3
-14 8 -50 12 -80 3 -30 8 -57 10 -60 2 -4 7 -28 10 -54 l7 -48 -60 40 c-91 62
-261 145 -342 167 -3 1 -12 5 -20 8 -33 14 -148 40 -250 59 -68 12 -263 16
-315 6 -17 -3 -54 -16 -83 -28 -69 -30 -97 -73 -88 -136 5 -40 39 -122 55
-134 4 -3 14 -15 23 -28 19 -29 75 -88 119 -127 44 -40 156 -125 163 -125 3 0
29 -15 58 -33 63 -39 163 -87 183 -87 7 0 16 -4 19 -9 3 -4 20 -12 38 -16 18
-4 38 -9 43 -11 90 -28 214 -35 306 -18 68 13 190 63 220 90 16 15 19 13 29
-28 45 -170 187 -581 235 -683 7 -16 12 -31 10 -33 -1 -2 -40 15 -85 38 -68
34 -227 99 -245 100 -3 0 -6 0 -7 1 -27 8 -175 38 -213 43 -139 19 -300 24
-395 12 -53 -7 -143 -19 -150 -21 -164 -43 -260 -97 -297 -169 -48 -92 33
-234 206 -366 18 -14 40 -32 49 -40 8 -8 16 -13 16 -11 1 3 19 -7 41 -21 37
-23 164 -89 210 -109 47 -20 185 -68 185 -64 0 2 12 0 27 -6 105 -40 367 -48
478 -15 64 19 171 74 213 110 60 50 122 120 122 136 0 29 23 0 65 -81 25 -49
68 -129 96 -176 27 -47 49 -90 49 -94 0 -5 5 -9 10 -9 6 0 10 -6 10 -12 0 -7
13 -33 29 -57 22 -32 37 -45 58 -47 15 -2 51 -5 78 -8 28 -4 74 -9 104 -12
l53 -6 -31 46 c-17 24 -31 49 -31 55 0 6 -4 11 -10 11 -5 0 -10 7 -10 15 0 8
-4 15 -8 15 -4 0 -13 12 -19 28 -12 28 -54 103 -63 112 -3 3 -19 32 -37 65
-17 33 -43 81 -56 107 -28 53 -24 62 19 49 40 -11 213 -4 244 10 3 1 10 3 15
4 19 4 50 17 125 53 l74 35 2092 0 2091 0 84 -41 c110 -53 191 -71 305 -68 49
1 95 6 102 10 7 4 12 2 12 -4 0 -10 -75 -154 -112 -215 -10 -16 -21 -37 -25
-45 -3 -8 -21 -39 -40 -68 -18 -29 -33 -55 -33 -59 0 -3 -6 -14 -13 -22 -8 -9
-24 -33 -37 -54 l-23 -39 34 6 c54 8 161 19 196 20 31 1 37 8 107 126 41 69
84 145 97 170 12 25 29 53 38 64 9 10 14 19 12 20 -2 0 9 27 25 58 l28 57 25
-37 c79 -118 223 -211 376 -242 65 -14 206 -17 270 -6 22 4 55 9 73 12 18 3
56 12 85 20 29 8 62 17 75 19 36 9 120 43 212 87 254 123 455 315 461 441 6
118 -141 214 -392 254 -57 10 -358 10 -429 1 -110 -14 -285 -56 -345 -83 -16
-7 -42 -17 -57 -20 -16 -4 -28 -12 -28 -18 0 -6 -3 -8 -6 -4 -3 3 -39 -12 -80
-34 -41 -21 -74 -37 -74 -35 0 2 6 19 14 37 27 68 29 74 32 84 1 6 16 44 32
85 34 87 120 345 158 473 l26 89 21 -20 c32 -29 133 -72 204 -87 147 -31 347
8 532 103 138 71 141 73 141 83 0 5 5 9 11 9 7 0 43 26 82 57 175 141 271 283
253 375 -9 49 -66 99 -127 112 -13 3 -37 8 -54 12 -55 12 -257 5 -326 -10 -13
-3 -35 -8 -49 -10 -206 -38 -411 -126 -590 -253 -13 -10 -21 -13 -18 -8 6 10
16 62 24 130 3 22 7 48 10 58 3 10 7 32 9 50 8 59 17 132 21 150 1 9 6 54 10
100 4 45 8 89 10 97 1 8 3 29 3 47 l1 31 52 -20 c75 -28 212 -32 306 -7 209
53 462 245 592 449 99 154 102 263 8 304 -33 14 -198 16 -243 3 -11 -3 -49
-14 -85 -23 -85 -22 -263 -101 -362 -161 -43 -26 -117 -80 -163 -120 -47 -40
-86 -72 -86 -71 -1 2 -3 44 -4 93 -8 236 -23 434 -41 552 l-5 32 50 -15 c48
-14 153 -19 196 -10 11 2 20 5 20 6 0 1 11 3 24 6 35 6 163 71 196 100 15 13
31 24 34 24 7 0 115 105 146 141 49 58 105 138 128 184 114 229 27 330 -222
255 -70 -21 -234 -97 -277 -129 -12 -9 -32 -23 -44 -31 -76 -51 -121 -91 -242
-221 -10 -11 -18 -23 -18 -28 0 -5 -6 -14 -13 -20 -11 -9 -18 9 -36 92 -12 56
-36 156 -53 222 -16 66 -31 125 -32 130 -7 26 -40 136 -56 185 -31 91 -31 93
15 97 94 8 177 48 251 120 182 177 280 551 162 614 -22 12 -117 6 -127 -8 -3
-5 -23 -16 -43 -27 -50 -25 -178 -144 -236 -219 -26 -34 -68 -103 -93 -153
-44 -88 -46 -90 -57 -65 -6 14 -33 78 -60 142 -28 64 -55 125 -60 135 -6 10
-31 60 -56 110 l-45 90 43 12 c145 38 253 225 261 452 4 100 -9 190 -27 190
-4 0 -8 6 -8 14 0 41 -85 54 -135 22 -45 -30 -135 -139 -135 -164 0 -6 -3 -12
-7 -14 -16 -6 -77 -152 -89 -210 -20 -97 -12 -99 -81 15 l-62 102 18 60 c15
47 18 84 16 170 -3 119 -6 135 -34 222 -31 93 -45 126 -68 163 -103 166 -226
100 -260 -140 -3 -19 -7 -37 -8 -38 -2 -2 -18 3 -37 12 -69 32 -153 56 -199
56 -106 0 -131 -77 -68 -205 17 -36 36 -65 40 -65 5 0 9 -4 9 -10 0 -22 175
-200 196 -200 7 0 14 -4 16 -8 4 -11 116 -72 132 -72 12 0 56 -52 56 -66 0 -3
9 -19 21 -35 23 -33 21 -34 -28 -14 -19 8 -45 17 -57 19 -11 3 -41 11 -66 18
-70 21 -182 23 -224 3 -82 -39 -62 -137 50 -250 107 -108 253 -184 363 -189
58 -3 127 10 149 27 17 14 25 5 67 -83 80 -166 125 -268 125 -284 0 -7 3 -16
7 -20 12 -12 43 -99 37 -105 -3 -3 -8 -1 -12 5 -14 19 -98 82 -157 116 -97 56
-208 95 -350 123 -11 2 -28 19 -38 37 -20 38 5 23 -382 233 -165 90 -329 179
-365 199 -36 20 -76 42 -90 49 -14 6 -28 16 -32 22 -4 5 -8 6 -8 1 0 -5 -7 -3
-15 4 -9 7 -35 23 -58 35 -48 24 -163 87 -222 120 -22 13 -69 38 -105 57 -36
19 -92 50 -125 68 -33 18 -89 48 -125 68 -36 19 -87 47 -115 62 -27 15 -81 44
-120 65 -38 21 -96 53 -128 71 -32 19 -61 34 -64 34 -3 0 -44 23 -90 51 -46
27 -120 68 -165 89 -66 33 -87 38 -122 34 -47 -7 -150 -60 -681 -354 -51 -28
-121 -67 -230 -126 -33 -18 -71 -39 -85 -47 -14 -7 -59 -32 -100 -54 -41 -23
-102 -56 -135 -75 -33 -18 -78 -42 -100 -53 -22 -11 -46 -26 -53 -32 -7 -7
-17 -13 -21 -13 -4 0 -120 -61 -257 -136 -137 -75 -276 -151 -309 -169 -190
-102 -224 -121 -264 -145 -25 -14 -51 -40 -60 -58 -10 -19 -24 -32 -36 -33
-51 -2 -160 -30 -240 -62 -95 -38 -148 -70 -278 -166 -18 -14 -18 -14 -2 25 9
21 25 62 36 89 11 28 24 59 29 70 5 11 25 56 45 100 59 129 87 185 96 191 5 3
17 0 28 -5 92 -50 268 -17 395 73 62 43 164 143 172 168 3 10 9 18 14 18 8 0
14 19 24 75 20 108 -169 130 -385 44 -61 -23 -66 -24 -47 -1 8 9 26 36 39 60
18 34 35 48 81 69 115 51 231 152 317 277 101 146 99 247 -5 265 -35 6 -53 4
-127 -14 -10 -2 -43 -16 -74 -30 -30 -14 -57 -25 -58 -25 -1 0 -5 23 -9 51 -8
62 -40 149 -66 182 -22 28 -64 45 -97 39z m587 -1791 c1 -686 1 -2973 1 -3001
-1 -33 -4 -36 -53 -54 -115 -40 -328 -162 -395 -225 -12 -12 -26 -21 -30 -21
-20 0 -254 -253 -301 -325 -28 -44 -56 -84 -60 -90 -4 -5 -21 -38 -37 -72 -17
-34 -33 -62 -37 -63 -5 0 -13 16 -33 70 -17 46 -23 61 -49 125 -25 63 -125
365 -120 365 2 0 -5 23 -16 50 -11 28 -18 50 -15 50 2 0 -2 18 -10 39 -16 45
-11 55 18 39 73 -39 249 -45 347 -13 30 10 61 22 68 28 6 5 12 6 12 3 0 -4 12
1 28 11 15 10 39 25 55 33 15 7 27 17 27 22 0 4 6 8 13 8 12 0 50 32 136 113
65 62 175 208 225 301 76 138 107 235 108 332 2 133 -113 179 -297 119 -78
-26 -237 -102 -243 -117 -2 -4 -8 -8 -13 -8 -8 0 -90 -53 -115 -75 -7 -5 -25
-19 -40 -30 -32 -22 -206 -193 -243 -239 -37 -46 -107 -157 -132 -211 l-23
-50 -7 40 c-4 22 -9 54 -12 72 -3 17 -7 35 -10 40 -2 4 -7 31 -11 60 -3 28 -8
57 -11 65 -3 7 -7 31 -9 53 -3 22 -7 56 -10 75 -3 19 -8 58 -11 85 -4 28 -8
61 -10 75 -3 14 -7 63 -10 109 -3 45 -7 87 -10 91 -11 18 14 19 51 4 54 -23
194 -27 273 -8 69 15 197 74 230 105 11 11 25 19 31 19 17 0 203 192 251 260
91 128 149 261 149 342 0 89 -54 132 -159 127 -235 -11 -607 -239 -793 -485
-22 -30 -42 -54 -43 -54 -7 0 8 403 19 505 2 17 7 64 11 105 8 81 12 111 18
116 2 2 12 -4 23 -14 62 -57 226 -74 350 -37 62 19 180 77 194 95 3 4 12 11
22 16 38 21 141 120 197 189 68 85 127 200 135 263 10 82 -39 134 -127 134
-201 0 -486 -139 -675 -329 -75 -76 -103 -100 -87 -73 7 11 14 41 21 89 2 18
18 90 35 160 17 69 32 131 33 136 7 29 75 256 91 302 2 7 16 1 35 -17 87 -81
292 -84 430 -7 19 11 44 25 55 31 49 27 137 97 176 141 52 59 71 84 90 120
l22 41 138 0 139 0 0 -155z m805 -1500 c0 -1460 -2 -1655 -15 -1662 -15 -8
-256 -97 -274 -102 -11 -2 -15 3374 -4 3402 6 17 20 18 150 17 l143 -1 0
-1654z m810 72 c1 -871 -2 -1583 -5 -1584 -3 -1 -21 -2 -40 -4 -99 -7 -242
-25 -252 -32 -8 -4 -12 14 -8 32 1 6 2 15 2 20 -2 15 -2 188 0 205 1 8 -2 25
-6 38 -5 14 -3 22 4 22 6 0 8 4 5 10 -3 5 -6 49 -5 97 1 100 1 88 0 208 0 50
1 97 2 105 1 8 -2 25 -6 38 -5 14 -3 22 4 22 6 0 8 4 5 10 -3 5 -6 49 -5 97 1
100 1 88 0 208 0 50 1 97 2 105 1 8 -2 25 -6 38 -5 14 -3 22 4 22 6 0 8 4 5
10 -3 5 -6 49 -5 97 1 100 1 88 0 208 0 50 1 97 2 105 1 8 -2 25 -6 38 -5 14
-3 22 4 22 6 0 8 4 5 10 -3 5 -6 49 -5 97 1 100 1 88 0 208 0 50 1 97 2 105 1
8 -2 25 -6 38 -5 14 -3 22 4 22 6 0 8 4 5 10 -5 8 -8 203 -3 250 1 8 -2 25 -6
38 -5 14 -3 22 4 22 6 0 8 4 5 10 -3 5 -6 49 -5 97 1 100 1 88 0 208 0 50 1
97 2 105 1 8 -2 25 -6 38 -4 12 -3 22 2 22 5 0 6 19 3 43 -3 23 -5 60 -3 83
l3 40 152 0 152 0 0 -1583z m791 1575 c3 -4 6 -36 5 -70 -1 -35 -2 -70 -2 -78
1 -8 1 -44 0 -80 0 -36 0 -72 0 -80 1 -8 1 -44 0 -80 0 -36 0 -72 0 -80 1 -8
1 -44 0 -80 0 -36 0 -72 0 -80 1 -8 1 -44 0 -80 0 -36 0 -72 0 -80 1 -8 1 -44
0 -80 0 -36 0 -72 0 -80 1 -8 1 -44 0 -80 0 -36 0 -72 0 -80 1 -8 1 -44 0 -80
0 -36 0 -72 0 -80 1 -8 1 -44 0 -80 0 -36 0 -72 0 -80 1 -8 1 -44 0 -80 0 -36
0 -72 0 -80 1 -8 1 -44 0 -80 0 -36 0 -72 0 -80 1 -8 1 -44 0 -80 0 -36 0 -72
0 -80 1 -41 0 -146 -1 -155 0 -5 1 -14 2 -20 1 -5 2 -257 1 -559 l-1 -548 -42
6 c-43 6 -148 17 -203 21 -16 2 -33 3 -37 4 -5 0 -8 713 -8 1584 l0 1583 139
-1 c77 0 143 -3 147 -7z m804 3 c7 -1 6 -3399 -1 -3405 -3 -3 -17 1 -31 8 -23
12 -186 73 -213 80 -5 1 -19 5 -30 9 -20 7 -20 14 -19 1659 1 909 2 1653 3
1654 2 1 286 -3 291 -5z m829 -43 c27 -55 122 -156 201 -215 109 -82 236 -131
344 -134 71 -3 178 34 210 72 l24 29 23 -68 c13 -37 24 -71 26 -77 1 -5 12
-44 23 -85 19 -68 66 -257 75 -303 3 -10 6 -26 9 -35 3 -9 8 -30 11 -47 14
-78 16 -89 22 -99 3 -6 -30 25 -73 69 -44 44 -111 103 -149 131 -264 191 -571
270 -655 169 -9 -11 -14 -38 -14 -74 1 -97 75 -224 208 -357 118 -117 237
-194 351 -226 113 -31 285 -9 341 43 13 12 24 18 25 13 1 -5 2 -20 3 -34 3
-39 17 -162 21 -195 13 -95 25 -485 14 -485 -3 0 -17 14 -30 32 -79 105 -137
162 -249 247 -222 168 -465 268 -605 247 -57 -9 -100 -51 -103 -102 -2 -20 -5
-41 -8 -45 -2 -4 0 -10 6 -14 6 -4 8 -11 5 -16 -4 -5 -3 -15 2 -21 4 -7 8 -20
10 -28 5 -40 101 -205 165 -285 70 -89 236 -245 259 -245 4 0 27 -13 51 -29
47 -31 144 -68 198 -75 19 -3 37 -5 40 -6 33 -11 216 15 226 31 24 39 28 -53
9 -193 -3 -18 -7 -55 -11 -83 -8 -73 -12 -96 -18 -137 -3 -21 -8 -55 -11 -75
-3 -21 -7 -45 -10 -53 -2 -8 -6 -32 -10 -53 -3 -22 -12 -71 -21 -109 l-16 -71
-21 49 c-22 51 -101 175 -146 228 -86 102 -270 263 -351 307 -14 8 -27 17 -30
20 -3 4 -45 28 -95 53 -193 100 -351 122 -416 60 -44 -42 -51 -83 -35 -189 21
-141 160 -382 312 -542 105 -110 256 -205 379 -237 72 -19 255 -16 280 4 8 7
15 9 15 5 0 -4 6 -3 13 2 6 6 19 13 29 16 14 5 15 2 6 -26 -5 -18 -11 -39 -13
-47 -2 -8 -4 -15 -5 -15 -1 0 -3 -7 -5 -15 -1 -8 -11 -42 -20 -75 -10 -33 -16
-60 -15 -60 2 0 -2 -10 -9 -23 -7 -13 -14 -31 -16 -40 -6 -27 -66 -204 -81
-237 -7 -16 -28 -69 -46 -117 -18 -49 -36 -88 -39 -88 -3 0 -15 19 -25 42 -21
47 -108 189 -139 227 -87 105 -141 165 -195 212 -35 29 -68 59 -74 64 -29 28
-124 95 -134 95 -5 0 -12 4 -14 8 -9 23 -208 126 -293 152 -22 7 -44 16 -48
20 -6 5 -12 2581 -7 3141 l0 45 148 0 147 0 24 -48z"/>
</g>
</svg>
