<svg xmlns="http://www.w3.org/2000/svg" xmlns:xlink="http://www.w3.org/1999/xlink" viewBox="0 0 279.32 197.19"><defs><style>.cls-1{fill:#d6e8e8;}.cls-2{fill:#c7d3dd;}.cls-3{fill:#fff;}.cls-4{fill:#ccd6dd;}.cls-5{fill:#aad1e0;}.cls-6{fill:#aebfc1;}.cls-7{fill:url(#linear-gradient);}.cls-8{fill:url(#linear-gradient-2);}.cls-9{fill:#eff2f4;}.cls-10{fill:#34254c;}.cls-11{fill:url(#linear-gradient-3);}.cls-12{fill:#473668;}.cls-13{fill:url(#linear-gradient-4);}.cls-14,.cls-23{fill:none;}.cls-14,.cls-15{stroke:#fff388;stroke-miterlimit:10;}.cls-14{stroke-width:3px;}.cls-15{fill:#e5dd76;}.cls-16{fill:#fff388;}.cls-17{fill:#e8eef2;}.cls-18{fill:url(#linear-gradient-5);}.cls-19{fill:url(#linear-gradient-6);}.cls-20{fill:url(#linear-gradient-7);}.cls-21{fill:url(#linear-gradient-8);}.cls-22{fill:url(#linear-gradient-9);}</style><linearGradient id="linear-gradient" x1="347.03" y1="290.61" x2="422.78" y2="290.61" gradientTransform="translate(-63.69)" gradientUnits="userSpaceOnUse"><stop offset="0" stop-color="#56bf62"/><stop offset="0.11" stop-color="#45cc70"/><stop offset="0.34" stop-color="#27e289"/><stop offset="0.57" stop-color="#11f29b"/><stop offset="0.79" stop-color="#04fca6"/><stop offset="1" stop-color="#0fa"/></linearGradient><linearGradient id="linear-gradient-2" x1="263.54" y1="287.63" x2="324.3" y2="287.63" gradientTransform="matrix(-1, 0, 0, 1, 404.07, 0)" gradientUnits="userSpaceOnUse"><stop offset="0.01" stop-color="#5ebf79"/><stop offset="0.05" stop-color="#59c27c"/><stop offset="0.48" stop-color="#29e395"/><stop offset="0.81" stop-color="#0bf7a4"/><stop offset="1" stop-color="#0fa"/></linearGradient><linearGradient id="linear-gradient-3" x1="197.2" y1="142.7" x2="272.81" y2="142.7" gradientTransform="matrix(-1, 0, 0, 1, 362.97, -121.9)" gradientUnits="userSpaceOnUse"><stop offset="0" stop-color="#34254c"/><stop offset="0.15" stop-color="#382953"/><stop offset="0.63" stop-color="#433362"/><stop offset="1" stop-color="#473668"/></linearGradient><linearGradient id="linear-gradient-4" x1="197.2" y1="150.91" x2="272.81" y2="150.91" gradientTransform="matrix(-1, 0, 0, 1, 442.74, 0)" gradientUnits="userSpaceOnUse"><stop offset="0" stop-color="#34254c"/><stop offset="0.15" stop-color="#392953"/><stop offset="0.63" stop-color="#433362"/><stop offset="1" stop-color="#473668"/></linearGradient><linearGradient id="linear-gradient-5" x1="189.65" y1="260.35" x2="204.21" y2="260.35" gradientTransform="translate(-143.46 -121.9)" gradientUnits="userSpaceOnUse"><stop offset="0" stop-color="#e8eef2"/><stop offset="0.49" stop-color="#e6edf2"/><stop offset="0.74" stop-color="#deeaf0"/><stop offset="0.93" stop-color="#d1e4ee"/><stop offset="1" stop-color="#cae1ed"/></linearGradient><linearGradient id="linear-gradient-6" x1="269.24" y1="260.35" x2="283.81" y2="260.35" xlink:href="#linear-gradient-5"/><linearGradient id="linear-gradient-7" x1="216.19" y1="260.35" x2="230.76" y2="260.35" xlink:href="#linear-gradient-5"/><linearGradient id="linear-gradient-8" x1="295.79" y1="260.35" x2="310.35" y2="260.35" xlink:href="#linear-gradient-5"/><linearGradient id="linear-gradient-9" x1="242.73" y1="260.35" x2="257.3" y2="260.35" xlink:href="#linear-gradient-5"/></defs><g id="back"><g id="Top"><polyline class="cls-1" points="149.29 24.77 79.35 69.46 79.35 82.23 220.62 82.23 220.62 69.46 149.29 24.77"/></g><path class="cls-2" d="M253.31,305" transform="translate(-79.77 -121.9)"/><polygon class="cls-1" points="149.29 24.77 105.85 36.81 105.85 49.59 149.29 37.54 149.29 24.77"/><polygon class="cls-2" points="86.62 169.56 39.54 182.62 39.54 197.19 86.62 185.35 86.62 169.56"/><path class="cls-2" d="M269.33,300" transform="translate(-79.77 -121.9)"/><rect class="cls-2" x="39.54" y="182.62" width="134.01" height="14.58"/><polygon class="cls-3" points="86.62 169.56 220.62 169.56 173.54 182.62 39.54 182.62 86.62 169.56"/><polygon class="cls-4" points="57.92 178.08 189.56 178.08 189.56 90.84 57.92 94.65 57.92 178.08"/><g id="Side"><polygon class="cls-5" points="220.62 169.56 173.54 182.62 173.54 197.19 220.62 185.35 220.62 169.56"/><polygon class="cls-5" points="220.62 169.56 220.62 82.23 189.56 90.84 189.56 178.18 220.62 169.56"/><polygon class="cls-5" points="220.62 69.46 177.18 81.5 177.18 94.28 220.62 82.23 220.62 69.46"/></g><circle class="cls-4" cx="106.56" cy="65.54" r="14.08"/><circle class="cls-6" cx="110.7" cy="65.81" r="11.94"/><path class="cls-7" d="M283.35,311.54v-33.6c.55-1.1,3.26-6.27,9.16-8,6.55-1.91,13.1,1.56,16.24,5.71,3.56,4.7.78,7.67,3.68,11.41,4.59,5.93,13.3.67,28.06,5.44,4.29,1.38,14.73,4.75,17.7,13.4,1.07,3.14,1,3.9.67,5.9" transform="translate(-79.77 -121.9)"/><path class="cls-8" d="M140.53,302.24V278.78a12,12,0,0,0-7.36-5.57,13.58,13.58,0,0,0-13,4c-2.86,3.28-.63,5.36-3,8-3.68,4.14-10.67.47-22.51,3.79-3.44,1-11.82,3.32-14.2,9.36-.86,2.19-.82,2.72-.54,4.12" transform="translate(-79.77 -121.9)"/></g><g id="Cap"><path class="cls-9" d="M281.86,84.15" transform="translate(-79.77 -121.9)"/><path class="cls-10" d="M241.38,151.8" transform="translate(-79.77 -121.9)"/><path class="cls-10" d="M196.39,147.84" transform="translate(-79.77 -121.9)"/><polygon class="cls-11" points="90.16 28.62 165.77 28.84 165.77 12.77 90.16 12.77 90.16 28.62"/><rect class="cls-10" x="139.23" width="40.98" height="12.77"/><rect class="cls-12" x="159.17" y="121.9" width="59.82" height="12.77" transform="translate(298.4 134.67) rotate(-180)"/><path class="cls-13" d="M169.93,150.84c0,4.51,20,8.21,37.8,8.24,18.12,0,37.81-3.4,37.81-7.91s-16.93-8.43-37.81-8.43S169.93,146.33,169.93,150.84Z" transform="translate(-79.77 -121.9)"/><line class="cls-14" x1="160.58" x2="160.58" y2="46.14"/><ellipse class="cls-15" cx="160.58" cy="46.12" rx="2.46" ry="1.36"/><path class="cls-16" d="M240.87,168.69l.95,2.09.14.3a1,1,0,0,0,.62.48,1.08,1.08,0,0,0,.81-.1,1.06,1.06,0,0,0,.49-.63l0-.28a1,1,0,0,0-.14-.53l-1-2.09-.14-.3a1.05,1.05,0,0,0-1.92.25l0,.28a1,1,0,0,0,.15.53Z" transform="translate(-79.77 -121.9)"/><path class="cls-16" d="M237.83,167.94l-.83,2.2-.12.31a1.05,1.05,0,0,0,.11.81,1.07,1.07,0,0,0,1.44.38,1.21,1.21,0,0,0,.48-.63l.83-2.2.12-.31a1,1,0,0,0-.11-.81,1,1,0,0,0-.62-.48,1.09,1.09,0,0,0-.81.1,1.28,1.28,0,0,0-.49.63Z" transform="translate(-79.77 -121.9)"/><path class="cls-16" d="M239.3,168v3a1,1,0,0,0,2.1,0v-3a1,1,0,1,0-2.1,0Z" transform="translate(-79.77 -121.9)"/></g><g id="Facade"><rect class="cls-17" x="39.54" y="182.63" width="134.01" height="14.57"/><rect class="cls-18" x="46.19" y="94.28" width="14.57" height="88.35"/><rect class="cls-19" x="125.79" y="94.28" width="14.57" height="88.35"/><rect class="cls-20" x="72.73" y="94.28" width="14.57" height="88.35"/><rect class="cls-21" x="152.33" y="94.28" width="14.57" height="88.35"/><rect class="cls-22" x="99.28" y="94.28" width="14.57" height="88.35"/><path class="cls-23" d="M186.28,175.23a12.21,12.21,0,1,0,.07,24.42h0a12.2,12.2,0,0,0,12.14-12.21v0A12.22,12.22,0,0,0,186.28,175.23Z" transform="translate(-79.77 -121.9)"/><path class="cls-17" d="M185.62,158.71,115.68,203.4v12.78H257V203.4Zm.76,40.94h0a12.21,12.21,0,1,1,12.17-12.24v0A12.2,12.2,0,0,1,186.38,199.65Z" transform="translate(-79.77 -121.9)"/></g></svg>