<?xml version="1.0" encoding="utf-8"?>
<!-- Generator: Adobe Illustrator 24.1.0, SVG Export Plug-In . SVG Version: 6.00 Build 0)  -->
<svg version="1.1" id="Layer_1" xmlns="http://www.w3.org/2000/svg" xmlns:xlink="http://www.w3.org/1999/xlink" x="0px" y="0px"
	 viewBox="0 0 25 28" style="enable-background:new 0 0 25 28;" xml:space="preserve">
<style type="text/css">
	.st0{fill:none;stroke:#191D31;stroke-miterlimit:10;}
	.st1{fill:#191D30;stroke:#191D30;stroke-miterlimit:10;}
</style>
<g>
	<path class="st0" d="M5.2,8.9h14.5c1.8,0,3.3,1.5,3.3,3.3v10.3c0,1.8-1.5,3.3-3.3,3.3H5.2c-1.8,0-3.3-1.5-3.3-3.3V12.2
		C1.9,10.4,3.4,8.9,5.2,8.9z"/>
	<path class="st0" d="M9.1,8.9c0-1.9,1.5-3.4,3.4-3.4 M12.5,5.5c1.9,0,3.4,1.5,3.4,3.4 M19.3,8.9c0-3.7-3-6.8-6.8-6.8
		s-6.8,3-6.8,6.8"/>
	<path class="st1" d="M12.5,14c-1.2,0-2.1,0.9-2.1,2.1s0.9,2.1,2.1,2.1s2.1-0.9,2.1-2.1S13.7,14,12.5,14z"/>
	<polyline class="st1" points="11.7,18.1 11.7,20.8 13.3,20.8 13.3,18.1 	"/>
</g>
</svg>
