<svg id="Layer_1" data-name="Layer 1" xmlns="http://www.w3.org/2000/svg" viewBox="0 0 40 29.34"><defs><style>.cls-1,.cls-2{fill:#191d32;}.cls-2,.cls-3{stroke:#191d32;stroke-miterlimit:10;}.cls-3{fill:none;}.cls-4{fill:#f3f3f3;}</style></defs><rect class="cls-1" x="0.5" y="3.84" width="39" height="25" rx="2.89"/><path class="cls-1" d="M36.61,8A2.39,2.39,0,0,1,39,10.39V29.61A2.39,2.39,0,0,1,36.61,32H3.39A2.39,2.39,0,0,1,1,29.61V10.39A2.39,2.39,0,0,1,3.39,8H36.61m0-1H3.39A3.39,3.39,0,0,0,0,10.39V29.61A3.39,3.39,0,0,0,3.39,33H36.61A3.39,3.39,0,0,0,40,29.61V10.39A3.39,3.39,0,0,0,36.61,7Z" transform="translate(0 -3.66)"/><path class="cls-2" d="M1.25,3.75" transform="translate(0 -3.66)"/><path class="cls-2" d="M21.25,18.75" transform="translate(0 -3.66)"/><line class="cls-3" x1="20.36" y1="11.15" x2="20.36" y2="11.15"/><line class="cls-3" x1="1.5" y1="0.5" x2="1.5" y2="0.5"/><polyline class="cls-1" points="2.5 6.34 20 21.34 37.5 6.34"/><path class="cls-4" d="M2,10.53,17.25,23.62l2.22,1.91a.77.77,0,0,0,1.06,0L35.81,12.44,38,10.53c.73-.63-.33-1.69-1.06-1.06L21.69,22.56l-2.22,1.91h1.06L5.25,11.38,3,9.47C2.3,8.84,1.24,9.9,2,10.53Z" transform="translate(0 -3.66)"/><path class="cls-1" d="M5,28.75l10-7.5" transform="translate(0 -3.66)"/><path class="cls-4" d="M5.38,29.4c3.3-2.48,6.6-4.94,9.89-7.42l.11-.08a.79.79,0,0,0,.27-1,.77.77,0,0,0-1-.27L9.89,24.15l-5.27,4a.79.79,0,0,0-.27,1,.77.77,0,0,0,1,.27Z" transform="translate(0 -3.66)"/><path class="cls-1" d="M35,28.75l-10-7.5" transform="translate(0 -3.66)"/><path class="cls-4" d="M35.38,28.1l-7.74-5.8c-.72-.54-1.42-1.11-2.15-1.62l-.11-.08a.76.76,0,0,0-1,.27.77.77,0,0,0,.27,1l4.73,3.55,5.27,3.95a.76.76,0,0,0,1-.27.77.77,0,0,0-.27-1Z" transform="translate(0 -3.66)"/></svg>