<svg id="Design" xmlns="http://www.w3.org/2000/svg" viewBox="0 0 466.71 81.65"><defs><style>.cls-1{fill:#fff;}</style></defs><g id="Logo"><rect class="cls-1" x="191.98" y="59.07" width="46.03" height="5.75" rx="0.35"/><rect class="cls-1" x="194.81" y="53.74" width="40.39" height="4.39" rx="0.65"/><rect class="cls-1" x="196.81" y="29.19" width="4.39" height="24.55"/><rect class="cls-1" x="220.8" y="29.19" width="4.39" height="24.55"/><rect class="cls-1" x="204.81" y="29.19" width="4.39" height="24.55"/><rect class="cls-1" x="228.8" y="29.19" width="4.39" height="24.55"/><rect class="cls-1" x="212.81" y="29.19" width="4.39" height="24.55"/><path class="cls-1" d="M234.72,28.92,215.17,41.41a1,1,0,0,0-.46.84v2.3a1,1,0,0,0,1,1h40.58a1,1,0,0,0,1-1V42.26a1,1,0,0,0-.47-.85l-20-12.5A2,2,0,0,0,234.72,28.92Zm1.9,12.53A3.16,3.16,0,1,1,239.1,39,3.16,3.16,0,0,1,236.62,41.45Z" transform="translate(-21 -18.44)"/></g><g id="Text"><path class="cls-1" d="M37.36,80.41A30.24,30.24,0,0,1,21,53.05,30.24,30.24,0,0,1,37.36,25.69a36.05,36.05,0,0,1,17.21-4.06,36.06,36.06,0,0,1,17.22,4.06A30.24,30.24,0,0,1,88.15,53.05,30.24,30.24,0,0,1,71.79,80.41a36.17,36.17,0,0,1-17.22,4A36.16,36.16,0,0,1,37.36,80.41Zm25.5-12.26a15.55,15.55,0,0,0,5.87-6.08,18.43,18.43,0,0,0,2.16-9,18.4,18.4,0,0,0-2.16-9,15.57,15.57,0,0,0-5.87-6.09,17,17,0,0,0-16.57,0A15.57,15.57,0,0,0,40.42,44a18.4,18.4,0,0,0-2.16,9,18.43,18.43,0,0,0,2.16,9,15.55,15.55,0,0,0,5.87,6.08,17,17,0,0,0,16.57,0Z" transform="translate(-21 -18.44)"/><path class="cls-1" d="M90.77,38.2V37q0-8.54,5.14-13.55t14.37-5a30,30,0,0,1,6,.6,14.48,14.48,0,0,1,4.84,1.81L117.1,32.42A9.81,9.81,0,0,0,112.18,31a5.18,5.18,0,0,0-4,1.55,6.56,6.56,0,0,0-1.43,4.58v1h11.14V50.46H107.17v32.8H90.77V50.46" transform="translate(-21 -18.44)"/><path class="cls-1" d="M121.34,38.2V37q0-8.54,5.14-13.55t14.37-5a30.11,30.11,0,0,1,6,.6,14.34,14.34,0,0,1,4.83,1.81l-4.05,11.57A9.81,9.81,0,0,0,142.75,31a5.2,5.2,0,0,0-4,1.55,6.56,6.56,0,0,0-1.42,4.58v1h11.13V50.46h-10.7v32.8h-16.4V50.46" transform="translate(-21 -18.44)"/><path class="cls-1" d="M169.51,80.45a30,30,0,0,1-11.87-11.18,30.77,30.77,0,0,1-4.32-16.22,30.83,30.83,0,0,1,4.32-16.23,30,30,0,0,1,11.87-11.18,35.78,35.78,0,0,1,17-4,36.5,36.5,0,0,1,14.93,2.94A28.65,28.65,0,0,1,212.53,33l-10.87,9.84q-5.88-7.06-14.24-7.07a17.59,17.59,0,0,0-8.77,2.15,15,15,0,0,0-6,6.09,18.72,18.72,0,0,0-2.12,9,18.75,18.75,0,0,0,2.12,9,15,15,0,0,0,6,6.08,17.6,17.6,0,0,0,8.77,2.16q8.37,0,14.24-7.08l10.87,9.84a28.77,28.77,0,0,1-11.05,8.46,36.5,36.5,0,0,1-14.93,2.93A35.66,35.66,0,0,1,169.51,80.45Z" transform="translate(-21 -18.44)"/><path class="cls-1" d="M339.11,41q5.14,5.18,5.14,15.62V83.34h-16.4V59.26c0-3.28-.62-5.69-1.86-7.25a6.28,6.28,0,0,0-5.22-2.33,7.5,7.5,0,0,0-5.95,2.59q-2.25,2.59-2.25,7.85V83.34h-17.4V59.26q0-9.59-7.07-9.58a7.62,7.62,0,0,0-6.05,2.59q-2.24,2.59-2.24,7.85V83.34h-16.4V36.56H279v4.92a16.48,16.48,0,0,1,6.18-4.27A20.9,20.9,0,0,1,293,35.79a20.54,20.54,0,0,1,8.8,1.81,15,15,0,0,1,6.3,5.52c1.84-2.36,5.17-4.17,8-5.44a22.39,22.39,0,0,1,9.24-1.89Q334,35.79,339.11,41Z" transform="translate(-21 -18.44)"/><path class="cls-1" d="M385.76,38.76a21,21,0,0,1,7.6,8.46A27.6,27.6,0,0,1,396.17,60a27.54,27.54,0,0,1-2.81,12.73,20.87,20.87,0,0,1-7.6,8.46,19.7,19.7,0,0,1-10.64,3q-7.51,0-11.95-4.92v20.89h-15V36.56h14.33v4.66q4.19-5.43,12.66-5.43A19.78,19.78,0,0,1,385.76,38.76Zm-7.09,29.35c1.7-2,2.55-4.7,2.55-8.16s-.85-6.17-2.55-8.15a8.66,8.66,0,0,0-13.07,0Q363,54.77,363,60c0,3.46.85,6.17,2.56,8.16a8.66,8.66,0,0,0,13.07,0Z" transform="translate(-21 -18.44)"/><path class="cls-1" d="M409.08,82.6a17.91,17.91,0,0,1-7.64-7.17,21.57,21.57,0,0,1-2.65-10.86V39.09h15v25q0,9,7.32,9t7.25-9v-25h14.72V64.57q0,9.5-5.84,15T421,85.13A26,26,0,0,1,409.08,82.6Z" transform="translate(-21 -18.44)"/><path class="cls-1" d="M454,82.78a30.43,30.43,0,0,1-9.15-3.49l4.92-11.22a28,28,0,0,0,7.6,3.15,34.15,34.15,0,0,0,8.71,1.16,13.87,13.87,0,0,0,5.65-.82,2.57,2.57,0,0,0,1.69-2.37c0-1-.68-1.77-2-2.2A41.93,41.93,0,0,0,465,65.74a63.23,63.23,0,0,1-9.54-1.82,14.58,14.58,0,0,1-6.77-4.14q-2.85-3-2.85-8.46a12.79,12.79,0,0,1,2.67-8,17.85,17.85,0,0,1,7.82-5.53,33.5,33.5,0,0,1,12.3-2,49.64,49.64,0,0,1,10.09,1,22.38,22.38,0,0,1,7.38,2.94l-3.92,11.13a27.34,27.34,0,0,0-13.47-3.45,13.53,13.53,0,0,0-5.7.9,2.72,2.72,0,0,0-1.81,2.38c0,1.09.66,1.85,2,2.29a45.84,45.84,0,0,0,6.56,1.33,72.78,72.78,0,0,1,9.58,2c2.53.75,3.73,2.11,5.6,4.1s2.8,4.76,2.8,8.33A12.66,12.66,0,0,1,485,76.65a14.37,14.37,0,0,1-6.9,5.49,35.49,35.49,0,0,1-12.56,2A50.51,50.51,0,0,1,454,82.78Z" transform="translate(-21 -18.44)"/></g></svg>